<svg xmlns="http://www.w3.org/2000/svg" viewBox="0 0 3178 3178" shape-rendering="geometricPrecision" text-rendering="geometricPrecision" image-rendering="optimizeQuality" fill-rule="evenodd" clip-rule="evenodd"><path d="M1589 0c878 0 1589 711 1589 1589s-711 1589-1589 1589S0 2467 0 1589 711 0 1589 0zm524 937c35-35 92-35 128 0 35 35 35 92 0 128l-524 524 524 524c35 35 35 92 0 128-35 35-92 35-128 0l-524-524-524 524c-35 35-92 35-128 0-35-35-35-92 0-128l524-524-524-524c-35-35-35-92 0-128 35-35 92-35 128 0l524 524 524-524z"/></svg>