<svg xmlns="http://www.w3.org/2000/svg" width="64" height="64" viewBox="0 0 640 640" shape-rendering="geometricPrecision" text-rendering="geometricPrecision" image-rendering="optimizeQuality" fill-rule="evenodd" clip-rule="evenodd"><path d="M436.872 2.386l200.766 200.778c3.142 3.13 3.142 8.256 0 11.398l-68.375 68.363c-3.13 3.141-8.256 3.141-11.386 0l-19.441-19.43-90.12 90.096c20.221 76.146.497 160.715-59.22 220.42a196.268 196.268 0 0 1-4.205 4.098c-5.233 4.973-4.394 4.95-9.45-.106L247.906 450.454 0 639.976 189.58 392.13 61.844 264.416c-5.09-5.102-4.666-4.3.342-9.567a237.905 237.905 0 0 1 3.827-3.921c59.706-59.706 144.285-79.442 220.432-59.222L376.54 101.6l-19.441-19.441c-3.13-3.13-3.13-8.256 0-11.398l68.374-68.375c3.142-3.13 8.268-3.13 11.398 0z"/></svg>