<svg xmlns="http://www.w3.org/2000/svg" width="37.087" height="37.788" viewBox="0 0 37.087 37.788">
  <g id="Group_174" data-name="Group 174" transform="translate(0.801 1)">
    <path id="Pin_Icon" data-name="Pin Icon" d="M24.029.171,35.072,11.465a.461.461,0,0,1,0,.641l-3.761,3.846a.436.436,0,0,1-.626,0l-1.069-1.093-4.957,5.068a13.049,13.049,0,0,1-3.257,12.4q-.114.117-.231.231c-.288.28-.242.278-.52-.006l-7.015-7.175L0,36.038,10.427,22.1,3.4,14.911c-.28-.287-.257-.242.019-.538q.1-.112.21-.221a12.373,12.373,0,0,1,12.124-3.332l4.955-5.069L19.641,4.658a.463.463,0,0,1,0-.641L23.4.171a.438.438,0,0,1,.627,0Z" transform="translate(0 -0.038)" fill="none" stroke="white" stroke-width="2" fill-rule="evenodd"/>
  </g>
</svg>
