<svg xmlns="http://www.w3.org/2000/svg" width="35" height="35" viewBox="0 0 35 35">
  <g id="Group_177" data-name="Group 177" transform="translate(-1125 -245)">
    <circle id="Ellipse_17" data-name="Ellipse 17" cx="17.5" cy="17.5" r="17.5" transform="translate(1125 245)" fill="#0f0b19"/>
    <path id="Pin_Icon" data-name="Pin Icon" d="M12.966.108l5.959,5.959a.24.24,0,0,1,0,.338L16.9,8.435a.239.239,0,0,1-.338,0l-.577-.577-2.675,2.674a6.778,6.778,0,0,1-1.758,6.542q-.061.062-.125.122c-.155.148-.13.147-.28,0L7.358,13.407,0,19.032l5.627-7.356L1.836,7.885c-.151-.151-.138-.128.01-.284l.114-.116A6.78,6.78,0,0,1,8.5,5.727l2.674-2.674L10.6,2.476a.24.24,0,0,1,0-.338L12.628.108a.24.24,0,0,1,.338,0Z" transform="translate(1133.5 253.462)" fill="none" stroke="#fff" stroke-width="2" fill-rule="evenodd"/>
  </g>
</svg>
